<?xml version="1.0" standalone="no"?><!DOCTYPE svg PUBLIC "-//W3C//DTD SVG 1.1//EN" "http://www.w3.org/Graphics/SVG/1.1/DTD/svg11.dtd"><svg t="1491983972939" class="icon" style="" viewBox="0 0 1024 1024" version="1.1" xmlns="http://www.w3.org/2000/svg" p-id="1794" xmlns:xlink="http://www.w3.org/1999/xlink" width="19" height="19"><defs><style type="text/css"></style></defs><path d="M917.661538 980.676923H106.338462c-35.446154 0-63.015385-27.569231-63.015385-63.015385V106.338462c0-35.446154 27.569231-63.015385 63.015385-63.015385h811.323076c35.446154 0 63.015385 27.569231 63.015385 63.015385v811.323076c0 35.446154-27.569231 63.015385-63.015385 63.015385z" fill="#5c924b" p-id="1795" class=""></path><path d="M807.384615 575.015385h-590.76923c-27.569231 0-47.261538-23.630769-47.261539-51.2v-31.507693c0-27.569231 23.630769-47.261538 47.261539-47.261538h594.707692c27.569231 0 51.2 23.630769 51.2 47.261538v31.507693c-3.938462 31.507692-27.569231 51.2-55.138462 51.2z" fill="#ffffff" p-id="1796" class=""></path><path d="M448.984615 807.384615v-590.76923c0-27.569231 23.630769-51.2 51.2-51.2h31.507693c27.569231 0 47.261538 23.630769 47.261538 51.2v594.707692c0 27.569231-23.630769 51.2-47.261538 51.2h-31.507693c-31.507692-3.938462-51.2-27.569231-51.2-55.138462z" fill="#ffffff" p-id="1797" class=""></path></svg>