<?xml version="1.0" standalone="no"?><!DOCTYPE svg PUBLIC "-//W3C//DTD SVG 1.1//EN" "http://www.w3.org/Graphics/SVG/1.1/DTD/svg11.dtd"><svg t="1490608938148" class="icon" style="" viewBox="0 0 1024 1024" version="1.1" xmlns="http://www.w3.org/2000/svg" p-id="6154" xmlns:xlink="http://www.w3.org/1999/xlink" width="32" height="32"><defs><style type="text/css"></style></defs><path d="M957 386.4c-6.1-36.3-24-69-50.8-93.7 1.2-13.9 0.6-28-1.7-41.9C889.4 161 804 100.3 714.2 115.5c-48.3 8.2-90.1 37.3-114.7 79-11.5 1-22.7 3.2-33.6 6.5-13.7 4.2-21.4 18.6-17.2 32.3 4.2 13.7 18.6 21.4 32.3 17.2 10.9-3.3 22.3-5 34.2-4.9 10.2 0.1 19.4-5.8 23.7-15 15.8-33.9 47.1-57.9 83.9-64.1 61.6-10.4 120.2 31.2 130.6 92.8 2.2 13.1 2.1 26.3-0.2 39.3-1.8 9.6 2 19.3 9.8 25.3 22.9 17.5 38.1 42.7 42.9 71.1 8.2 48.4-15.5 96.2-58.9 119.1-10.3 5.4-15.7 17.1-13.2 28.5 0.4 1.9 0.8 3.8 1.1 5.6 10.4 61.6-31.2 120.2-92.8 130.6-35.7 6-72.4-5.6-98.3-31-4.1-4-9.3-6.5-15-7.2-12-1.5-23.5-4.9-34.5-10-12.9-6.1-28.4-0.6-34.5 12.3-6.1 12.9-0.6 28.4 12.3 34.5 13.3 6.3 27.3 10.8 41.7 13.3 1.7 1.5 3.4 2.9 5.1 4.3a450.53 450.53 0 0 0-30.9 88.2c-14-28.7-31.3-55.9-51.4-81.2 15-30 21-64.7 15.2-100.1 18.4-16.3 32.8-36.5 42.4-59.2 12.3-29 15.9-60.7 10.6-91.8 2.5-0.2 2.3 0.1 3.5 0.2 3.1 0.1 6.5 0.6 9.8 1.1 3.4 0.5 6.9 0.8 10.4 1.6 1.7 0.3 3.5 0.7 5.2 1 0.9 0.2 1.8 0.3 2.6 0.5 0.9 0.2 1.7 0.5 2.6 0.7 3.4 1 6.9 1.7 10.2 2.9 1.6 0.6 3.3 1.1 4.9 1.6 1.6 0.6 3.1 1.3 4.6 1.9 3 1.1 5.7 2.7 8.3 3.9 1.3 0.7 2.4 1.4 3.6 2.1 0.6 0.4 1.1 0.7 1.7 1 0.5 0.4 1 0.7 1.5 1.1 1 0.7 2 1.3 2.8 2 0.8 0.7 1.6 1.3 2.3 1.9 1.3 1.2 2.5 2.3 3.2 3.2 0.2 0.2 0.4 0.4 0.5 0.6 0.1 0.2 0.3 0.4 0.4 0.5 0.2 0.3 0.5 0.7 0.4 0.6l0.1 0.1c0.1 0.2 0.2 0.3 0.2 0.3 0.1-0.1 0.2-0.1 0.2-0.2 0 13.3 0.7 26.5 2 39.2 1.3 12.4 3.1 24.3 5.3 35.6 1.1 5.6 2.3 11.1 3.6 16.4 1.3 5.3 2.6 10.4 4 15.2 2.8 9.7 5.7 18.6 8.6 26.4 2.9 7.8 5.6 14.5 8.1 20 4.9 11 8.3 17.2 8.2 17.2 0 0-1.2-6.6-3.2-18.1-1-5.7-2.1-12.7-3.3-20.6-1.2-7.9-2.4-16.9-3.5-26.6-0.6-4.8-1.1-9.9-1.6-15.1-0.5-5.2-1-10.6-1.3-16.1-0.3-4.8-0.6-9.8-0.9-14.8 1.4-2.1 3.4-4.9 5.7-7.9 5.8-7.5 14.2-16.9 24.1-24.7 2.4-2 5-3.8 7.6-5.5 1.3-0.9 2.6-1.6 3.9-2.4 1.3-0.7 2.6-1.5 3.9-2.2 2.6-1.3 5.2-2.5 7.8-3.5 1.3-0.5 2.5-0.9 3.8-1.3 1.2-0.4 2.5-0.7 3.6-0.9 1.2-0.2 2.3-0.5 3.4-0.6 1.1-0.1 2.2-0.3 3.1-0.3 1 0 1.9-0.1 2.8-0.1 0.9 0 1.7 0.1 2.4 0.1 0.4 0 0.7 0 1 0.1 0.3 0 0.6 0.1 0.9 0.1 0.6 0.1 1 0.2 1.4 0.2 0.8 0.1 1.2 0.2 1.2 0.2s-0.4-0.1-1.1-0.4c-0.4-0.1-0.8-0.3-1.4-0.4l-0.9-0.3c-0.3-0.1-0.7-0.1-1-0.2-0.7-0.2-1.5-0.3-2.4-0.5-0.9-0.1-1.9-0.2-2.9-0.4s-2.2-0.1-3.3-0.2c-1.2-0.1-2.4 0-3.7 0.1-1.3 0-2.6 0.2-4 0.3-1.4 0.1-2.8 0.4-4.3 0.6-2.9 0.5-5.9 1.3-9 2.2-1.5 0.5-3.1 1-4.6 1.5-1.5 0.6-3.1 1.2-4.6 1.8-3.1 1.3-6.2 2.7-9.2 4.3-9.4 4.9-18.1 10.9-25.1 16.4-0.3-22.8 0.6-46.8 3-70.7 0.8-7.6 1.7-15.2 2.7-22.8 1.1-0.5 2.2-1 3.5-1.5 1.3-0.5 2.6-1.1 3.9-1.7 1.4-0.5 2.8-1.1 4.3-1.6 2.9-1.1 6.1-2.1 9.3-3.2 1.7-0.5 3.3-0.9 5-1.4 1.7-0.5 3.4-1 5.2-1.3 3.5-0.8 7.1-1.6 10.8-2.1 1.8-0.3 3.7-0.6 5.5-0.9 1.8-0.2 3.7-0.4 5.5-0.6 1.8-0.2 3.6-0.4 5.4-0.5 1.8-0.1 3.6-0.1 5.3-0.2 1.7 0 3.5-0.2 5.2-0.1 1.7 0 3.4 0.1 5 0.1 1.6 0.1 3.2 0.1 4.7 0.2s3 0.3 4.4 0.4c2.8 0.3 5.4 0.5 7.7 0.8 2.3 0.4 4.3 0.7 5.9 1 3.3 0.6 5.2 0.9 5.2 0.9s-1.8-0.7-4.9-1.8c-1.6-0.6-3.5-1.3-5.6-2.1-2.2-0.7-4.7-1.4-7.5-2.3-1.4-0.4-2.8-0.9-4.3-1.3s-3.1-0.7-4.7-1.1c-1.6-0.4-3.3-0.8-5-1.2-1.7-0.4-3.5-0.6-5.3-1-1.8-0.3-3.7-0.6-5.5-1-1.9-0.3-3.8-0.5-5.7-0.7-2-0.2-3.9-0.4-5.9-0.6-2-0.1-3.9-0.2-5.9-0.4-4-0.3-7.9-0.3-11.9-0.3-2-0.1-3.9 0-5.9 0.1-1.9 0.1-3.8 0.1-5.7 0.2-3.7 0.3-7.4 0.5-10.8 1-1.1 0.1-2.3 0.3-3.3 0.4 1.6-9.3 3.5-18.5 5.4-27.4 2.6-11.7 5.4-23 8.3-33.7 2.9-10.7 6-20.8 9-30.1s5.9-17.8 8.6-25.4 5.2-14.1 7.2-19.6c4.1-10.9 6.6-17.2 6.5-17.2 0 0-4.5 5.4-11.5 15.2-3.5 4.9-7.5 11-11.9 18.1-4.3 7.1-9 15.2-13.6 24.2s-9.2 18.9-13.6 29.5c-3 7.2-5.8 14.8-8.5 22.6-2.9-4.5-6.2-9.3-9.7-14.3-2.6-3.6-5.2-7.2-8.1-10.9-2.8-3.7-5.8-7.3-8.8-10.9-1.5-1.8-3.1-3.5-4.6-5.3l-4.8-5.1c-3.2-3.3-6.5-6.5-9.8-9.3-1.7-1.4-3.3-2.9-4.9-4.1-1.6-1.3-3.2-2.6-4.9-3.7-1.6-1.2-3.2-2.3-4.8-3.3-1.6-1-3.1-2-4.6-2.8-1.5-0.8-3-1.6-4.4-2.4-1.4-0.7-2.8-1.3-4.1-1.9-2.5-1.2-4.9-1.9-6.7-2.7-3.9-1.1-6.1-1.8-6.1-1.8s2 1.1 5.5 3c1.6 1.1 3.7 2.3 5.9 3.9 1.1 0.8 2.2 1.7 3.5 2.6 1.2 1 2.4 2 3.7 3.1 1.3 1.1 2.5 2.4 3.8 3.6 1.3 1.2 2.6 2.6 3.9 4 1.3 1.4 2.6 2.9 3.9 4.4 1.3 1.5 2.6 3.2 3.9 4.8 2.6 3.3 5 6.9 7.5 10.5 1.2 1.8 2.4 3.7 3.6 5.6 1.1 1.9 2.3 3.8 3.4 5.8 2.2 3.9 4.4 7.8 6.3 11.7 2 3.9 3.9 7.8 5.7 11.5 3.5 7.6 6.6 14.7 9.2 20.8 2.5 6.1 4.5 11.2 5.8 14.8 0.4 1 0.7 1.9 1 2.7-4.1 17.1-7.1 34.9-8.8 52.9-0.4 4-0.7 7.9-1 11.9-0.6-0.3-1.2-0.5-1.8-0.8-0.7-0.3-1.5-0.7-2.2-1-0.8-0.3-1.5-0.6-2.3-0.9-1.6-0.6-3.2-1.2-4.8-1.7-3.3-0.9-6.8-2.1-10.5-2.8-1.8-0.4-3.6-0.8-5.5-1.1-1.8-0.2-3.7-0.5-5.6-0.8-3.8-0.6-7.6-0.7-11.4-1-0.9-0.1-1.9-0.1-2.8-0.2h-2.8c-1.9 0-3.8 0-5.6 0.1-3.7-0.1-7.3 0.3-10.8 0.6-3.5 0.3-6.9 0.5-10 1.1-1.5 0.2-2.9 0.4-4.2 0.6-4-19.6-11.3-38-21.9-54.8 4.9-21.1 5.5-42.7 1.9-64.3-15.8-88.8-101.2-149.5-190.9-134.3-7.3 1.2-14.6 3-21.8 5.2-35.6-25.4-79.7-35.7-123.3-28.3-89.8 15.2-150.5 100.5-135.3 190.3 2.1 12.4 5.5 24.4 10.3 35.9-44.9 37.3-66.9 95.5-57 154.3C80.5 630.5 153 688.2 233.9 686c27 73.5 102.9 118.9 182.4 105.5 21.8-3.7 41.9-11.5 59.6-22.5 38.3 34 69.1 76.2 90.3 123.8 6 13 16.3 22.5 24.1 20.7 4.9-1.2 9.7-2.4 14.6-3.7 3.3 0.1 6.6 0.3 9.9 0.4 8.2 0.2 16.4-11.5 19.6-25.8 11.6-55.7 35.6-107.5 69.8-151.5 0.4-0.5 0.8-1.1 1.2-1.6 15 1.7 30.3 1.3 45.5-1.3 86.2-14.6 145.6-93.9 136.7-179.7 52.6-36.1 80.2-99.7 69.4-163.9zM507.9 570.6l-14.7 10.5 4.8 17.4c1 3.7 1.8 7.4 2.5 11.2 10.4 61.6-31.3 120.1-92.8 130.5-59.9 10.1-116.8-28.5-129.6-87.8l-5.3-24.4-24.4 4.1c-0.2 0-0.3 0.2-0.5 0.3-61.5 10.2-119.9-31.3-130.3-92.8-7.7-45.8 12.9-91.1 52.5-115.4l21.9-13.4-13.2-22c-7.3-12.1-12.1-25.3-14.5-39.3-10.4-61.5 31.3-120.1 92.9-130.5 33.5-5.7 67.4 3.9 93.1 26.1l12.2 10.5 14.8-6.2c8.1-3.4 16.5-5.9 25.1-7.3 61.6-10.4 120.2 31.2 130.6 92.8 3 17.8 1.8 35.5-3.6 52.7l-3.9 12.6 7.9 10.6c10.7 14.4 17.7 30.8 20.7 48.6 7.1 43.2-10.5 85.8-46.2 111.2z" fill="#5c924b" p-id="6155"></path><path d="M489.2 484.9c-0.3 0-0.7 0-1-0.1-0.4 0-0.8 0.1-1.2 0.1-0.8 0.1-1.7 0.1-2.8 0.2-1 0.2-2.1 0.4-3.2 0.6-1.2 0.2-2.3 0.6-3.6 1-1.3 0.3-2.6 0.9-3.9 1.4-1.4 0.5-2.7 1.2-4.2 1.9-1.4 0.7-2.8 1.5-4.3 2.3-2.9 1.7-5.9 3.7-8.9 5.9-1.5 1.1-3 2.3-4.4 3.5-1.5 1.2-3 2.4-4.4 3.7-2.9 2.6-5.9 5.2-8.7 8-8.9 8.7-17 17.9-23.8 25.9-3.7-25.2-10-51.3-18.7-76.5-2.8-8.1-5.9-16-9.1-23.9 0.8-1.1 1.6-2.2 2.5-3.3 0.9-1.2 1.8-2.4 2.8-3.7 1-1.3 2.1-2.6 3.1-3.9 2.1-2.7 4.6-5.4 7-8.4 1.3-1.4 2.6-2.8 3.9-4.3 1.3-1.5 2.6-3 4-4.4 2.8-2.8 5.6-5.9 8.6-8.6l4.5-4.2c1.6-1.3 3.1-2.6 4.6-3.9 1.5-1.3 3-2.7 4.6-3.9 1.6-1.2 3.2-2.4 4.7-3.5 1.6-1.2 3.1-2.4 4.6-3.4 1.6-1 3.1-2 4.6-3 1.5-1 3-1.9 4.4-2.9 1.4-0.9 2.9-1.6 4.3-2.4 2.8-1.5 5.3-2.9 7.6-4.1 2.3-1.1 4.4-2 6.1-2.7 3.4-1.5 5.4-2.4 5.4-2.4s-2.1 0.4-5.8 1.1c-1.9 0.3-4.1 0.8-6.7 1.2-2.6 0.6-5.4 1.5-8.5 2.3-1.6 0.5-3.2 0.9-4.9 1.4-1.6 0.6-3.3 1.2-5.1 1.9-1.8 0.7-3.6 1.3-5.4 2-1.8 0.7-3.6 1.6-5.5 2.4-1.9 0.8-3.8 1.7-5.7 2.6-1.9 0.9-3.8 2-5.7 3-1.9 1-3.8 2.1-5.7 3.1-1.9 1.1-3.7 2.3-5.6 3.4-3.8 2.2-7.4 4.7-11 7.1-1.8 1.2-3.5 2.5-5.2 3.7-1.7 1.3-3.4 2.5-5.1 3.7-3.2 2.6-6.4 5-9.3 7.5-1 0.8-1.9 1.6-2.8 2.4-4.7-9.4-9.6-18.6-14.8-27.4-6.8-11.5-13.9-22.4-21.2-32.3-7.2-10-14.6-19.2-21.7-27.5-7.1-8.2-14-15.6-20.4-21.9-6.4-6.3-12.1-11.7-17-15.9-9.8-8.6-15.9-13.1-15.9-13.1s4 6 11 16.4c3.5 5.2 7.7 11.5 12.3 18.7 4.7 7.2 9.8 15.4 15.2 24.4 5.4 9 11.1 18.8 16.8 29.2 3.9 7.1 7.8 14.5 11.6 22.1-6-1.4-12.5-2.7-19.4-3.7-5-0.7-10.1-1.3-15.4-1.6-5.2-0.4-10.6-0.6-15.9-0.6-2.7 0-5.3 0.1-8 0.2-2.7 0.2-5.3 0.3-7.9 0.5-5.2 0.5-10.4 1.1-15.3 2-2.5 0.5-4.9 0.9-7.2 1.4-2.4 0.5-4.6 1-6.8 1.7-2.2 0.6-4.3 1.2-6.4 1.9-2 0.7-4 1.3-5.8 2-1.8 0.7-3.6 1.4-5.3 2-1.6 0.7-3.2 1.4-4.6 2.1-2.9 1.3-5.3 2.6-7.3 3.6-3.9 2.2-6.1 3.5-6.1 3.5s2.4-0.9 6.6-2.6c2.2-0.7 4.7-1.7 7.7-2.5 1.5-0.4 3.1-0.8 4.8-1.3 1.7-0.4 3.5-0.8 5.3-1.2 1.8-0.4 3.8-0.7 5.8-1 2-0.4 4.1-0.6 6.2-0.8 2.1-0.3 4.4-0.4 6.6-0.5 2.2-0.2 4.6-0.2 6.9-0.2 4.7-0.1 9.5 0.1 14.3 0.5 2.4 0.2 4.9 0.5 7.3 0.8 2.4 0.4 4.8 0.7 7.3 1.1 4.8 0.9 9.6 1.8 14.3 3 4.7 1.2 9.2 2.6 13.5 4 8.6 2.9 16.4 6.2 22.9 9.3 6.5 3.1 11.7 6.1 15.2 8.2 1 0.6 1.9 1.2 2.6 1.6 7.4 16.6 14.3 34 20.4 51.6 1.4 3.9 2.7 7.8 4 11.7H367.7c-0.9 0.1-1.8 0.1-2.7 0.2-1.8 0.2-3.7 0.2-5.7 0.5-3.8 0.6-7.8 1.1-11.8 2.1-2 0.5-4 0.9-6.1 1.4-2 0.6-4 1.2-6.1 1.8-4.1 1.1-8 2.8-12 4.2-1 0.4-2 0.7-3 1.1-1 0.4-1.9 0.8-2.9 1.2-1.9 0.8-3.9 1.7-5.7 2.5-3.8 1.6-7.4 3.4-10.9 5.1-3.5 1.7-6.9 3.3-10 5.1-3.1 1.7-6.1 3.3-8.7 4.7-2.7 1.4-5.1 2.9-7.3 4.2-2.1 1.3-4 2.4-5.5 3.3-3.1 1.8-4.8 2.8-4.8 2.8s1.9-0.7 5.3-2c1.7-0.6 3.7-1.4 6-2.3 2.3-0.8 4.9-2 7.8-2.9 2.9-1 6-2 9.4-3.1 3.3-1.2 6.8-2.1 10.5-3.1 3.6-1 7.4-2.1 11.2-2.9 1.9-0.4 3.9-0.8 5.8-1.3 1-0.2 1.9-0.5 2.9-0.6 1-0.2 2-0.3 2.9-0.5 3.9-0.6 7.7-1.3 11.5-1.6 1.9-0.2 3.7-0.3 5.6-0.5 1.8-0.1 3.6-0.1 5.4-0.1 3.5-0.2 6.9 0.2 10 0.3 1.6 0.1 3 0.4 4.4 0.6l2.1 0.3c0.7 0.2 1.3 0.3 1.9 0.4 1.2 0.3 2.5 0.5 3.5 0.9 1.1 0.3 2.1 0.7 3 1 1.7 0.7 3.3 1.3 4.3 2 0.3 0.1 0.5 0.3 0.8 0.4 0.2 0.1 0.4 0.3 0.5 0.4 0.3 0.2 0.6 0.5 0.6 0.5v0.1l0.1 0.1c0.2 0.2 0.3 0.2 0.3 0.2 0.1-0.1 0.1-0.2 0.2-0.2 3.8 13.3 7.1 26.5 10 39.3 2.8 12.6 5.2 24.8 7.2 36.6 1 5.9 1.9 11.6 2.7 17.2 0.9 5.6 1.5 11 2.2 16.2 1.4 10.4 2.3 20 3.2 28.6 0.8 8.6 1.4 16.1 1.9 22.3 0.9 12.5 1.4 19.7 1.4 19.7s2-7.3 4.3-20.1c1.2-6.4 2.4-14.2 3.4-23.1 1-8.9 1.9-18.9 2.3-29.8 0.2-5.5 0.3-11.1 0.4-17 0-5.8-0.1-11.9-0.4-18.1-0.2-5.4-0.6-11-1-16.6 1.5-2.7 3.5-6.1 5.8-10.1 5.7-9.7 13.6-22.7 22.6-34.9 2.2-3.1 4.6-6 6.9-8.9 1.2-1.5 2.4-2.8 3.6-4.2 1.2-1.3 2.4-2.7 3.6-4 2.4-2.5 4.9-4.9 7.3-7 1.2-1 2.4-2.1 3.7-2.9 1.2-0.9 2.4-1.8 3.6-2.5 1.2-0.7 2.3-1.5 3.4-2s2.2-1.2 3.2-1.5c1.1-0.4 2-0.8 2.9-1.2 0.9-0.3 1.8-0.5 2.6-0.7 0.4-0.1 0.8-0.2 1.1-0.3 0.4 0 0.7-0.1 1-0.1 0.6-0.1 1.2-0.2 1.6-0.2 0.9-0.1 1.3-0.2 1.3-0.2s-0.5 0-1.3-0.1c-0.7 0.2-1.2 0.1-1.8 0.1z" fill="#5c924b" p-id="6156"></path></svg>