<?xml version="1.0" standalone="no"?><!DOCTYPE svg PUBLIC "-//W3C//DTD SVG 1.1//EN" "http://www.w3.org/Graphics/SVG/1.1/DTD/svg11.dtd"><svg t="1490608986551" class="icon" style="" viewBox="0 0 1024 1024" version="1.1" xmlns="http://www.w3.org/2000/svg" p-id="6927" xmlns:xlink="http://www.w3.org/1999/xlink" width="32" height="32"><defs><style type="text/css"></style></defs><path d="M486.2976 444.10368c0 25.82016-20.93568 46.76096-46.76608 46.76096L112.19968 490.86464c-25.82016 0-46.76096-20.9408-46.76096-46.76096L65.43872 116.76672c0-25.82528 20.93568-46.76096 46.76096-46.76096l327.33696 0c25.82528 0 46.76608 20.93568 46.76608 46.76096L486.30272 444.10368z" p-id="6928" fill="#5c924b"></path><path d="M967.11168 444.10368c0 25.82016-20.9408 46.76096-46.76096 46.76096l-327.33696 0c-25.8304 0-46.76096-20.9408-46.76096-46.76096L546.2528 116.76672c0-25.82528 20.93056-46.76096 46.76096-46.76096l327.33696 0c25.82016 0 46.76096 20.93568 46.76096 46.76096L967.11168 444.10368z" p-id="6929" fill="#5c924b"></path><path d="M486.2976 914.32448c0 25.82016-20.93568 46.76096-46.76608 46.76096L112.19968 961.08544c-25.82016 0-46.76096-20.9408-46.76096-46.76096l0-327.33184c0-25.8304 20.93568-46.75584 46.76096-46.75584l327.33696 0c25.82528 0 46.76608 20.92544 46.76608 46.75584L486.30272 914.32448z" p-id="6930" fill="#5c924b"></path><path d="M920.35072 540.2368l-327.33696 0c-25.8304 0-46.76096 20.9408-46.76096 46.76096l0 327.34208c0 25.82016 20.93056 46.76096 46.76096 46.76096l327.33696 0c25.82016 0 46.76096-20.9408 46.76096-46.76096l0-327.34208C967.11168 561.17248 946.17088 540.2368 920.35072 540.2368zM933.55008 888.23296c0 21.69856-17.60256 39.30112-39.30112 39.30112l-275.13344 0c-21.7088 0-39.30112-17.60256-39.30112-39.30112l0-275.13856c0-21.69856 17.59232-39.30112 39.30112-39.30112l275.13344 0c21.69856 0 39.30112 17.60256 39.30112 39.30112L933.55008 888.23296z" p-id="6931" fill="#5c924b"></path></svg>