<?xml version="1.0" standalone="no"?><!DOCTYPE svg PUBLIC "-//W3C//DTD SVG 1.1//EN" "http://www.w3.org/Graphics/SVG/1.1/DTD/svg11.dtd"><svg t="1490608688982" class="icon" style="" viewBox="0 0 1024 1024" version="1.1" xmlns="http://www.w3.org/2000/svg" p-id="4556" xmlns:xlink="http://www.w3.org/1999/xlink" width="32" height="32"><defs><style type="text/css"></style></defs><path d="M452.838064 468.51665c-106.657158-0.197498-193.357799 0.344854-195.048301 2.473331l-124.218117 95.095845c-4.894474 4.305049-7.222495 10.093892-7.129374 15.783475-0.664126 6.332219 0.984421 12.666484 6.358825 17.513885 0 0 122.927727 106.029872 124.988666 107.019409h195.048301v162.760944c0 14.942317 13.423731 27.411303 29.973662 27.411303h49.75724c16.533558 0 29.986965-12.270465 29.986965-27.411303V706.402595h223.185129c0.251733-1.584078 73.157183 3.857864 65.98483 0L727.348138 582.758554S850.795705 472.2773 851.72589 470.989981c0 0-143.335523-1.385557-289.169959-2.077312v-34.584679h200.314235c2.060939-0.939395 124.988666-107.018386 124.988666-107.018386 5.362124-4.848425 7.013741-11.132548 6.348591-17.464767 0.105401-5.690606-2.222621-11.478426-7.118118-15.832593L762.857886 198.953238c-1.716084-2.176572-91.249237-2.670829-200.300932-2.447749V91.083461c0-14.941294-13.423731-27.434839-29.986964-27.434839h-49.757241c-16.522302 0-29.973662 12.296047-29.973662 27.434839v105.818048c-143.999648 0.717338-283.904025 2.051729-283.904025 2.051729 0.929162 1.312902 124.378775 111.731734 124.378775 111.731734L168.935062 434.32799c-7.172353 3.90903 65.721841-1.533936 65.975621 0h217.928404v34.18866h-0.001023z" p-id="4557" fill="#5c924b"></path></svg>