<?xml version="1.0" standalone="no"?><!DOCTYPE svg PUBLIC "-//W3C//DTD SVG 1.1//EN" "http://www.w3.org/Graphics/SVG/1.1/DTD/svg11.dtd"><svg t="1490608826465" class="icon" style="" viewBox="0 0 1024 1024" version="1.1" xmlns="http://www.w3.org/2000/svg" p-id="5374" xmlns:xlink="http://www.w3.org/1999/xlink" width="32" height="32"><defs><style type="text/css"></style></defs><path d="M773.244329 608.546817c-50.447886 0-91.276906 40.82902-91.276906 91.276906 0 50.447886 40.82902 91.276906 91.276906 91.276906 50.447886 0 91.276906-40.82902 91.276906-91.276906C864.418907 649.375837 823.589887 608.546817 773.244329 608.546817L773.244329 608.546817zM773.244329 531.902868c92.709503 0 167.920855 75.211352 167.920855 167.920855 0 92.709503-75.211352 167.920855-167.920855 167.920855-92.709503 0-167.920855-75.211352-167.920855-167.920855C605.323474 607.11422 680.432497 531.902868 773.244329 531.902868L773.244329 531.902868zM304.068752 421.695213l0-59.350455 7.674628 0c3.683821 0 6.651344-2.967523 6.651344-6.651344l0-80.839412c0-3.683821-2.967523-6.651344-6.651344-6.651344l-7.674628 0 0-29.675227c0-7.776956-3.479165-14.632957-8.902568-19.340062l-50.8572-51.164185-30.800839 34.586989 46.150095 46.45708 0 19.135405-8.493255 0c-3.683821 0-6.651344 2.967523-6.651344 6.651344l0 80.839412c0 3.683821 2.967523 6.651344 6.651344 6.651344l8.493255 0 0 59.350455L304.068752 421.695213 304.068752 421.695213zM334.050964 713.22874c-17.293495-65.2855-76.746278-113.379834-147.455181-113.379834-18.623763 0-36.531228 3.376836-53.108424 9.516538l-7.265314-144.692315c0-21.693614 10.64215-30.596183 29.879884-31.107825l364.084341-0.102328 0.102328-226.248026-31.005496 0 5.01409-34.177676c1.841911-12.893375 12.58639-23.637854 25.070451-23.637854 126.887179 0 267.793345 0 394.680524 0 12.484061 0 22.61457 10.744479 22.819227 23.637854l0.61397 34.177676L918.755271 207.21495 918.755271 471.733786c12.58639 8.697911 23.944839 17.60048 34.177676 27.117018 4.502448 4.40012 6.856001 10.335165 6.753672 18.112122l0 85.137204c0 3.376836-6.856001 4.604777-7.776956 2.558209-34.177676-64.159888-101.816728-106.72849-178.665334-106.830818-111.537923 0-201.893874 90.355951-201.893874 201.893874 0 4.502448 0.102328 9.004897 0.409313 13.405016L334.050964 713.126412 334.050964 713.22874zM556.512841 221.02928l0 298.287199L599.490756 519.316478c19.44239-18.726092 41.954632-34.382332 66.615769-46.047767l0-252.239432L556.512841 221.02928 556.512841 221.02928zM692.097931 221.131608l0 241.597282c44.410513-15.144599 80.532427-13.405016 125.863895-13.405016 17.088838-0.920955 26.196063-8.902568 27.321675-23.944839L845.181173 221.336265 692.097931 221.131608 692.097931 221.131608zM186.595783 685.804737c-36.735885 0-66.411112 29.777556-66.411112 66.411112 0 36.735885 29.777556 66.411112 66.411112 66.411112 36.735885 0 66.411112-29.777556 66.411112-66.411112C253.006895 715.582292 223.331668 685.804737 186.595783 685.804737L186.595783 685.804737zM186.595783 630.035775c-67.536724 0-122.282402 54.745678-122.282402 122.282402 0 67.536724 54.745678 122.282402 122.282402 122.282402 67.536724 0 122.282402-54.745678 122.282402-122.282402C308.878185 684.781453 254.132507 630.035775 186.595783 630.035775z" p-id="5375" fill="#5c924b"></path></svg>