<?xml version="1.0" standalone="no"?><!DOCTYPE svg PUBLIC "-//W3C//DTD SVG 1.1//EN" "http://www.w3.org/Graphics/SVG/1.1/DTD/svg11.dtd"><svg t="1490608463116" class="icon" style="" viewBox="0 0 1024 1024" version="1.1" xmlns="http://www.w3.org/2000/svg" p-id="2386" xmlns:xlink="http://www.w3.org/1999/xlink" width="32" height="32"><defs><style type="text/css"></style></defs><path d="M232.238318 644.989897c20.945031 0 36.119639 8.394181 37.609573 9.213849 8.625448 6.022157 75.743078 52.531424 162.590052 102.984513 61.198827 35.552727 114.590851 43.023886 148.611689 43.023886 19.098987 0 32.719192-2.329045 39.037085-3.735068 21.280676-3.1262 48.374754-18.174941 103.57189-49.613978 43.107797-24.576745 122.210389-69.657476 152.138002-72.4071 3.169179 2.791579 4.13518 5.791913 4.324492 8.03807l-297.223379 219.591277c-9.487072 4.806469-20.630876 7.240915-33.138748 7.240915-25.101701 0-46.551222-9.633405-46.907333-9.779737-19.162432-8.79327-189.474352-85.879949-271.010367-85.879949-34.461883 0-65.691141 10.828626-91.505064 24.597211L140.336212 686.817538c12.151761-6.947226 27.493168-16.054651 41.324174-25.247011C198.155059 650.572032 215.175711 644.989897 232.238318 644.989897L232.238318 644.989897 232.238318 644.989897zM232.238318 603.0149c-21.427008 0-46.90631 5.666046-73.854055 23.63121-26.570145 17.691941-60.002582 35.468816-60.002582 35.468816l0 260.852006c0 0 58.764382-67.327408 133.480061-67.327408 74.715679 0 253.506714 82.039481 253.506714 82.039481s28.858258 13.599739 64.410985 13.599739c17.775852 0 37.231973-3.400446 55.595202-13.599739l304.94627-225.320769c15.090697-8.541537 21.345144-54.987359-17.125029-76.730569-3.967358-2.245134-9.046027-3.273557-14.985296-3.273557-64.179718 0-231.847415 120.153544-265.448698 122.776278 0 0-11.669784 3.127224-31.712259 3.127224-28.585035 0-74.233702-6.379291-127.498836-37.337373-90.623997-52.65729-160.427806-101.640911-160.427806-101.640911S268.52578 603.0149 232.238318 603.0149L232.238318 603.0149" p-id="2387" fill="#5c924b"></path><path d="M589.842903 113.442702c139.754974 0 253.087159 113.310695 253.087159 253.087159s-113.310695 253.087159-253.087159 253.087159-253.088182-113.290229-253.088182-253.087159C336.75472 226.773863 450.067462 113.442702 589.842903 113.442702L589.842903 113.442702zM720.111828 220.938971l-45.479821 0-84.096327 111.757317-84.055394-111.757317-45.500287 0 106.763582 141.91722-78.345346 0c-3.841491 0-6.968715 3.14769-6.968715 7.052626l0 13.620206c0 3.882424 3.127224 7.009647 6.968715 7.009647l83.130326 0 0 34.461883-83.130326 0c-3.841491 0-6.968715 3.14769-6.968715 7.051603l0 13.620206c0 3.883447 3.127224 7.031137 6.968715 7.031137l83.130326 0 0 52.469002c0 3.797489 3.25309 6.90527 7.366781 6.90527l19.896142 0c4.071735 0 7.366781-3.106758 7.366781-6.90527L607.158267 452.703499l83.10986 0c3.861958 0 6.947226-3.14769 6.947226-7.031137l0-13.620206c0-3.925403-3.085268-7.051603-6.947226-7.051603l-83.10986 0 0-34.461883 83.10986 0c3.861958 0 6.947226-3.127224 6.947226-7.009647l0-13.620206c0-3.904936-3.085268-7.052626-6.947226-7.052626l-76.918857 0L720.111828 220.938971 720.111828 220.938971zM589.842903 71.467705c-162.695452 0-295.062156 132.367727-295.062156 295.061133S427.14745 661.590993 589.842903 661.590993c162.694429 0 295.061133-132.367727 295.061133-295.061133C884.883569 203.834408 752.537332 71.467705 589.842903 71.467705L589.842903 71.467705" p-id="2388" fill="#5c924b"></path></svg>